# xmcd
#
# Track frame offsets:
#	187
#	41180
#	71537
#	83570
#	97845
#	119062
#	151527
#	165417
#	189082
#	208927
#	221870
#	231540
#	244997
#	264005
#	274877
#
# Disc length: 3889 seconds
#
# Revision: 1
# Processed by: cddbd v1.5.1PL0 Copyright (c) Steve Scherf et al.
# Submitted via: CDex 1.50Beta5
#
DISCID=cf0f2f0f
DTITLE=バイヤール室内管弦楽団 - アルビノーニのアダージョ
DYEAR=1900
DGENRE=Classical
TTITLE0=アダージョ ト短調
TTITLE1=ミュゼット
TTITLE2=タンブラーン
TTITLE3=ポロネーゼ
TTITLE4=間奏曲「夜」
TTITLE5=カノン ニ短調
TTITLE6=アラ・ホーンパイプ
TTITLE7=G線上のアリア
TTITLE8=アダージョ(ヴェニスの愛)
TTITLE9=ラルゲット
TTITLE10=トランペット・ヴォランタリー
TTITLE11=シチリアーノ
TTITLE12=めんどり
TTITLE13=ラールゴ〜協奏曲集四季第4番「冬」より
TTITLE14=バディヌリとジーク
EXTD=
EXTT0=
EXTT1=
EXTT2=
EXTT3=
EXTT4=
EXTT5=
EXTT6=
EXTT7=
EXTT8=
EXTT9=
EXTT10=
EXTT11=
EXTT12=
EXTT13=
EXTT14=
PLAYORDER=
